<?xml version="1.0" encoding="UTF-8"?>
<svg width="288px" height="474px" viewBox="0 0 288 474" version="1.1" xmlns="http://www.w3.org/2000/svg" xmlns:xlink="http://www.w3.org/1999/xlink">
    <title>Group 152</title>
    <defs>
        <polygon id="path-1" points="0.99230615 0.481699507 22.118 0.481699507 22.118 26.3395607 0.99230615 26.3395607"></polygon>
    </defs>
    <g id="Contact-Us" stroke="none" stroke-width="1" fill="none" fill-rule="evenodd">
        <g transform="translate(-321.000000, -539.000000)" id="Group-152">
            <g transform="translate(321.000000, 539.000000)">
                <polyline id="Stroke-1" stroke="#FFFFFF" points="136.9406 473.049 139.6266 402.399 101.9506 402.399 101.9896 473.049"></polyline>
                <polyline id="Stroke-3" stroke="#FFFFFF" points="142.8488 473.049 140.1618 402.399 177.8378 402.399 177.7988 473.049"></polyline>
                <polyline id="Stroke-5" stroke="#FFFFFF" points="202.3957 473.4113 208.3497 384.8363 210.4647 384.8363 216.2327 473.4113"></polyline>
                <path d="M232.7776,473.4113 C244.3326,401.0733 231.3486,351.0533 231.3486,351.0533 L207.5596,347.8863 L207.7456,350.2483 L187.4066,352.9563 C187.4066,352.9563 174.2966,401.0733 185.8506,473.4113" id="Stroke-7" stroke="#FFFFFF"></path>
                <path d="M74.0256,284.5568 L74.0256,270.2898 L59.6056,270.2898 L59.6056,284.7278 C56.0006,285.8708 51.4106,287.6138 46.7516,290.1708 C46.7516,290.1708 50.7156,295.4348 66.9626,295.4348 C83.0556,295.4348 87.1716,289.8958 87.1716,289.8958 C87.1716,289.8958 81.5886,286.7838 74.0256,284.5568" id="Fill-9" fill="#FFB1A5"></path>
                <path d="M74.0256,284.5568 L74.0256,270.2898 L59.6056,270.2898 L59.6056,284.7278 C56.0006,285.8708 51.4106,287.6138 46.7516,290.1708 C46.7516,290.1708 50.7156,295.4348 66.9626,295.4348 C83.0556,295.4348 87.1716,289.8958 87.1716,289.8958 C87.1716,289.8958 81.5886,286.7838 74.0256,284.5568 Z" id="Stroke-11" stroke="#FFFFFF" stroke-linecap="round" stroke-linejoin="round"></path>
                <path d="M89.4514,252.0685 C86.6984,248.8305 84.4944,245.0515 82.6214,239.7515 C81.5334,236.6715 79.1094,235.9415 77.1114,235.9155 C70.4114,228.4905 63.5114,229.8185 58.9714,232.2145 C51.7234,234.8865 49.1474,240.4925 48.9884,247.0915 C48.8204,254.0775 43.3264,255.1705 39.0954,263.2505 C31.6264,277.5165 44.2014,289.5325 67.0934,286.1995 L67.1234,285.9765 C69.3774,286.6615 72.1394,286.9605 75.5134,286.7595 C103.0134,285.1285 100.3584,264.9005 89.4514,252.0685 Z" id="Stroke-13" stroke="#FFFFFF"></path>
                <path d="M270.7658,317.6554 C266.4688,316.2674 261.8608,318.6254 260.4728,322.9224 C260.0218,324.3184 259.9718,325.7454 260.2488,327.0864 L250.7718,339.3674 C250.7548,339.2784 250.7388,339.1904 250.7228,339.1024 L250.7178,339.0764 C250.3298,336.9864 249.9478,334.9494 249.5698,333.0044 L249.5598,332.9554 C249.0158,330.1534 248.4828,327.5464 247.9648,325.2484 L247.9658,325.2484 L247.1158,320.2164 L246.7338,320.3114 C246.2108,318.4784 245.7118,317.1064 245.2418,316.3544 C243.2048,313.1064 231.7738,313.2214 231.1698,313.1504 C228.0788,312.7884 233.1518,337.3824 239.5808,358.8794 C239.6298,359.0434 239.6928,359.1994 239.7518,359.3564 C239.7578,359.3734 239.7638,359.3884 239.7698,359.4054 C240.8048,362.1014 243.2978,363.8334 246.0218,364.0174 C246.0838,364.0214 246.1468,364.0294 246.2088,364.0324 C246.3248,364.0374 246.4398,364.0344 246.5558,364.0334 C246.7118,364.0334 246.8678,364.0324 247.0218,364.0224 C247.0498,364.0204 247.0778,364.0164 247.1048,364.0134 C249.1198,363.8604 251.0368,362.8734 252.3278,361.1924 C252.3328,361.1844 252.3388,361.1764 252.3448,361.1704 C252.5698,360.8744 252.7828,360.5644 252.9658,360.2254 L267.4148,333.5674 C271.1738,333.9584 274.8238,331.6894 276.0328,327.9484 C277.4198,323.6524 275.0628,319.0444 270.7658,317.6554" id="Fill-15" fill="#FFB1A5"></path>
                <path d="M270.7658,317.6554 C266.4688,316.2674 261.8608,318.6254 260.4728,322.9224 C260.0218,324.3184 259.9718,325.7454 260.2488,327.0864 L250.7718,339.3674 C250.7548,339.2784 250.7388,339.1904 250.7228,339.1024 L250.7178,339.0764 C250.3298,336.9864 249.9478,334.9494 249.5698,333.0044 L249.5598,332.9554 C249.0158,330.1534 248.4828,327.5464 247.9648,325.2484 L247.9658,325.2484 L247.1158,320.2164 L246.7338,320.3114 C246.2108,318.4784 245.7118,317.1064 245.2418,316.3544 C243.2048,313.1064 231.7738,313.2214 231.1698,313.1504 C228.0788,312.7884 233.1518,337.3824 239.5808,358.8794 C239.6298,359.0434 239.6928,359.1994 239.7518,359.3564 C239.7578,359.3734 239.7638,359.3884 239.7698,359.4054 C240.8048,362.1014 243.2978,363.8334 246.0218,364.0174 C246.0838,364.0214 246.1468,364.0294 246.2088,364.0324 C246.3248,364.0374 246.4398,364.0344 246.5558,364.0334 C246.7118,364.0334 246.8678,364.0324 247.0218,364.0224 C247.0498,364.0204 247.0778,364.0164 247.1048,364.0134 C249.1198,363.8604 251.0368,362.8734 252.3278,361.1924 C252.3328,361.1844 252.3388,361.1764 252.3448,361.1704 C252.5698,360.8744 252.7828,360.5644 252.9658,360.2254 L267.4148,333.5674 C271.1738,333.9584 274.8238,331.6894 276.0328,327.9484 C277.4198,323.6524 275.0628,319.0444 270.7658,317.6554 Z" id="Stroke-17" stroke="#FFFFFF"></path>
                <path d="M200.3899,426.1808 L200.4309,426.1788 C199.7989,382.1268 202.0849,364.6838 199.9179,340.7428 L176.4619,344.5958 L179.5339,426.0598 C177.3619,428.5088 176.0319,431.7208 176.0319,435.2518 C176.0319,442.9138 182.2439,449.1258 189.9069,449.1258 C197.5699,449.1258 203.7819,442.9138 203.7819,435.2518 C203.7819,431.7798 202.4969,428.6138 200.3899,426.1808" id="Fill-19" fill="#FFB1A5"></path>
                <path d="M200.3899,426.1808 L200.4309,426.1788 C199.7989,382.1268 202.0849,364.6838 199.9179,340.7428 L176.4619,344.5958 L179.5339,426.0598 C177.3619,428.5088 176.0319,431.7208 176.0319,435.2518 C176.0319,442.9138 182.2439,449.1258 189.9069,449.1258 C197.5699,449.1258 203.7819,442.9138 203.7819,435.2518 C203.7819,431.7798 202.4969,428.6138 200.3899,426.1808 Z" id="Stroke-21" stroke="#FFFFFF" stroke-linecap="round" stroke-linejoin="round"></path>
                <path d="M254.4612,195.8762 L182.1472,195.8762 C178.8382,195.8762 176.1562,193.1932 176.1562,189.8852 L176.1562,123.3192 C176.1562,120.0112 178.8382,117.3282 182.1472,117.3282 L254.4612,117.3282 C257.7702,117.3282 260.4512,120.0112 260.4512,123.3192 L260.4512,189.8852 C260.4512,193.1932 257.7702,195.8762 254.4612,195.8762 Z" id="Stroke-23" stroke="#344354" stroke-width="1.968"></path>
                <path d="M198.7727,79.5314 L126.4597,79.5314 C123.1507,79.5314 120.4677,76.8484 120.4677,73.5404 L120.4677,6.9744 C120.4677,3.6664 123.1507,0.9844 126.4597,0.9844 L198.7727,0.9844 C202.0827,0.9844 204.7637,3.6664 204.7637,6.9744 L204.7637,73.5404 C204.7637,76.8484 202.0827,79.5314 198.7727,79.5314 Z" id="Stroke-25" stroke="#344354" stroke-width="1.968"></path>
                <path d="M200.6487,175.4426 L236.2087,175.4426 C239.5347,175.4426 242.2297,172.7476 242.2297,169.4216 L242.2297,141.0356 C242.2297,137.7106 239.5347,135.0136 236.2087,135.0136 L200.6497,135.0136 C197.3237,135.0136 194.6277,137.7106 194.6277,141.0356 L194.6277,169.4216 C194.6277,172.7476 197.3237,175.4426 200.6487,175.4426" id="Fill-27" fill="#3787C8"></path>
                <polygon id="Stroke-29" stroke="#FFFFFF" stroke-width="1.647" stroke-linecap="round" stroke-linejoin="round" points="229.2873 161.9504 210.6813 161.9504 207.3193 161.9504 207.3193 147.2184 229.2873 147.2184 229.2873 150.9014"></polygon>
                <polyline id="Stroke-31" stroke="#FFFFFF" stroke-width="1.647" stroke-linecap="round" stroke-linejoin="round" points="207.3195 147.218 218.3035 155.874 229.2875 147.218"></polyline>
                <path d="M132.6838,172.7697 L63.7198,172.7697 C60.5648,172.7697 58.0058,170.2117 58.0058,167.0567 L58.0058,107.4387 C58.0058,104.2837 60.5648,101.7257 63.7198,101.7257 L132.6838,101.7257 C135.8388,101.7257 138.3978,104.2837 138.3978,107.4387 L138.3978,167.0567 C138.3978,170.2117 135.8388,172.7697 132.6838,172.7697 Z" id="Stroke-33" stroke="#344354" stroke-width="1.968"></path>
                <path d="M114.6164,159.0822 L81.4094,159.0822 C77.7424,159.0822 74.7694,156.1102 74.7694,152.4432 L74.7694,120.5322 C74.7694,116.8652 77.7424,113.8932 81.4094,113.8932 L114.6164,113.8932 C118.2824,113.8932 121.2554,116.8652 121.2554,120.5322 L121.2554,152.4432 C121.2554,156.1102 118.2824,159.0822 114.6164,159.0822" id="Fill-35" fill="#F66D1D"></path>
                <path d="M179.2199,62.8527 L146.0129,62.8527 C142.3459,62.8527 139.3729,59.8797 139.3729,56.2127 L139.3729,24.3027 C139.3729,20.6357 142.3459,17.6637 146.0129,17.6637 L179.2199,17.6637 C182.8869,17.6637 185.8589,20.6357 185.8589,24.3027 L185.8589,56.2127 C185.8589,59.8797 182.8869,62.8527 179.2199,62.8527" id="Fill-37" fill="#D86964"></path>
                <path d="M110.1282,136.1418 L104.4792,136.1418 C104.4472,134.4428 104.2272,132.7448 103.8072,131.0458 L108.6042,131.0458 C109.4702,132.5668 110.0102,134.2958 110.1282,136.1418 L110.1282,136.1418 Z M108.6042,142.7738 L103.6542,142.7738 C104.1022,141.0758 104.3722,139.3768 104.4552,137.6788 L110.1282,137.6788 C110.0102,139.5238 109.4702,141.2538 108.6042,142.7738 L108.6042,142.7738 Z M101.5812,148.3058 C102.2262,146.9738 102.7672,145.6428 103.2012,144.3108 L107.5602,144.3108 C106.0472,146.2018 103.9692,147.6188 101.5812,148.3058 L101.5812,148.3058 Z M98.2962,148.7668 C97.7702,148.7668 97.2512,148.7328 96.7422,148.6658 C96.0182,147.2138 95.4012,145.7628 94.9042,144.3108 L101.6882,144.3108 C101.1902,145.7628 100.5732,147.2138 99.8502,148.6658 C99.3412,148.7328 98.8222,148.7668 98.2962,148.7668 L98.2962,148.7668 Z M89.0322,144.3108 L93.3922,144.3108 C93.8252,145.6428 94.3662,146.9738 95.0112,148.3058 C92.6232,147.6188 90.5452,146.2018 89.0322,144.3108 L89.0322,144.3108 Z M87.9882,142.7738 C87.1222,141.2538 86.5822,139.5238 86.4642,137.6788 L92.1382,137.6788 C92.2212,139.3768 92.4902,141.0758 92.9382,142.7738 L87.9882,142.7738 Z M87.9882,131.0458 L92.7862,131.0458 C92.3652,132.7448 92.1452,134.4428 92.1142,136.1418 L86.4642,136.1418 C86.5822,134.2958 87.1222,132.5668 87.9882,131.0458 L87.9882,131.0458 Z M94.8502,125.5618 C94.1832,126.8778 93.6422,128.1938 93.2222,129.5088 L89.0322,129.5088 C90.5112,127.6618 92.5292,126.2658 94.8502,125.5618 L94.8502,125.5618 Z M98.2962,125.0528 C98.9282,125.0528 99.5482,125.1028 100.1532,125.1978 C100.9582,126.6348 101.5892,128.0718 102.0592,129.5088 L94.5332,129.5088 C95.0032,128.0718 95.6342,126.6348 96.4402,125.1978 C97.0442,125.1028 97.6642,125.0528 98.2962,125.0528 L98.2962,125.0528 Z M103.0702,137.6788 C102.9542,139.3768 102.6482,141.0758 102.1682,142.7738 L94.4252,142.7738 C93.9452,141.0758 93.6382,139.3768 93.5222,137.6788 L103.0702,137.6788 Z M93.4702,136.1418 C93.4722,134.4428 93.6722,132.7448 94.0932,131.0458 L102.5002,131.0458 C102.9202,132.7448 103.1202,134.4428 103.1222,136.1418 L93.4702,136.1418 Z M107.5602,129.5088 L103.3712,129.5088 C102.9502,128.1938 102.4092,126.8778 101.7422,125.5618 C104.0632,126.2658 106.0812,127.6618 107.5602,129.5088 L107.5602,129.5088 Z M89.0032,127.6168 C83.8992,132.7208 83.8992,141.0988 89.0032,146.2038 C94.1072,151.3078 102.4852,151.3078 107.5892,146.2038 C112.6932,141.0998 112.6932,132.7208 107.5892,127.6168 C102.4852,122.5118 94.1072,122.5118 89.0032,127.6168 L89.0032,127.6168 Z" id="Fill-39" fill="#FFFFFF"></path>
                <path d="M283.0862,378.7736 L251.0122,378.7736 C249.6472,378.7736 248.5402,377.6676 248.5402,376.3016 C248.5402,374.9366 249.6472,373.8306 251.0122,373.8306 L283.0862,373.8306 C284.4512,373.8306 285.5592,374.9366 285.5592,376.3016 C285.5592,377.6676 284.4512,378.7736 283.0862,378.7736" id="Fill-41" fill="#56DFED"></path>
                <path d="M34.5461,440.1955 L2.4721,440.1955 C1.1071,440.1955 0.0001,439.0895 0.0001,437.7235 C0.0001,436.3585 1.1071,435.2525 2.4721,435.2525 L34.5461,435.2525 C35.9111,435.2525 37.0181,436.3585 37.0181,437.7235 C37.0181,439.0895 35.9111,440.1955 34.5461,440.1955" id="Fill-43" fill="#56DFED"></path>
                <path d="M259.6262,407.3693 L257.6992,407.3693 C256.1192,407.3693 254.8382,406.0883 254.8382,404.5083 L254.8382,402.8213 C254.8382,401.2413 256.1192,399.9603 257.6992,399.9603 L259.6262,399.9603 C261.2062,399.9603 262.4872,401.2413 262.4872,402.8213 L262.4872,404.5083 C262.4872,406.0883 261.2062,407.3693 259.6262,407.3693" id="Fill-45" fill="#C98BD2"></path>
                <g id="Group-49" transform="translate(265.000000, 303.737000)">
                    <mask id="mask-2" fill="white">
                        <use xlink:href="#path-1"></use>
                    </mask>
                    <g id="Clip-48"></g>
                    <path d="M13.3254,0.5552 L21.6244,4.1532 C22.0864,4.3532 22.2544,4.9012 21.9994,5.3752 L11.0824,25.7682 C10.8274,26.2432 10.2474,26.4662 9.7854,26.2662 L1.4864,22.6672 C1.0244,22.4682 0.8564,21.9202 1.1114,21.4462 L12.0284,1.0532 C12.2834,0.5772 12.8634,0.3552 13.3254,0.5552" id="Fill-47" fill="#372F5F" mask="url(#mask-2)"></path>
                </g>
                <path d="M277.5324,303.9308 L285.8314,307.5298 C286.2934,307.7288 286.4614,308.2768 286.2074,308.7508 L275.2894,329.1438 C275.0354,329.6188 274.4544,329.8418 273.9934,329.6418 L265.6944,326.0438 C265.2324,325.8438 265.0644,325.2958 265.3184,324.8218 L276.2364,304.4288 C276.4904,303.9528 277.0714,303.7308 277.5324,303.9308" id="Fill-50" fill="#261B43"></path>
                <polygon id="Fill-52" fill="#E6E6E6" points="276.5969 306.006 283.8889 309.167 274.9909 325.787 267.6999 322.626"></polygon>
                <polygon id="Fill-54" fill="#FFFFFF" points="283.8889 309.1672 267.6999 322.6262 276.5969 306.0062"></polygon>
                <path d="M272.4817,316.5695 C268.5127,314.9415 263.6057,315.3145 260.4727,322.9225 L264.7747,322.1705 L263.4397,325.5405 C265.8817,325.1785 267.8437,322.4475 268.4407,321.5295 L274.2127,320.5205 C274.2127,320.5205 276.4517,318.1975 272.4817,316.5695" id="Fill-56" fill="#FFB1A5"></path>
                <path d="M214.9992,284.016798 C214.5232,284.0138 245.5952,288.3168 250.7232,323.7428 L234.5992,326.2118 L231.3492,352.9558 L186.3692,352.9558 L177.4392,303.5428 C177.4392,303.5428 187.4042,289.2618 205.9072,284.016798 L214.9992,284.016798 Z" id="Fill-58" fill="#318AD3"></path>
                <path d="M214.9992,284.016798 C214.5232,284.0138 245.5952,288.3168 250.7232,323.7428 L234.5992,326.2118 L231.3492,352.9558 L186.3692,352.9558 L177.4392,303.5428 C177.4392,303.5428 187.4042,289.2618 205.9072,284.016798 L214.9992,284.016798 Z" id="Stroke-60" stroke="#FFFFFF"></path>
                <line x1="234.5988" y1="326.2121" x2="235.9978" y2="310.7441" id="Stroke-62" stroke="#FFFFFF"></line>
                <path d="M217.9524,284.5236 L217.9524,272.2176 L203.5324,272.2176 L203.5324,284.6686 C202.7954,284.8876 201.5664,285.3336 199.6584,286.2396 L210.9054,292.9386 L222.4034,286.2386 C222.4034,286.2386 220.5784,285.1766 217.9524,284.5236" id="Fill-64" fill="#FFB1A5"></path>
                <path d="M217.9524,284.5236 L217.9524,272.2176 L203.5324,272.2176 L203.5324,284.6686 C202.7954,284.8876 201.5664,285.3336 199.6584,286.2396 L210.9054,292.9386 L222.4034,286.2386 C222.4034,286.2386 220.5784,285.1766 217.9524,284.5236 Z" id="Stroke-66" stroke="#FFFFFF"></path>
                <path d="M203.3987,273.7218 C203.3987,273.7218 205.9897,280.5978 212.9027,280.0038 C219.2557,279.4588 218.2457,269.9288 218.2457,269.9288 L203.3987,273.7218 Z" id="Fill-68" fill="#F3978E"></path>
                <path d="M197.1106,264.5763 C194.8496,266.6263 189.7966,258.8493 191.9796,256.6673 C194.1646,254.4843 195.8296,257.9093 195.8296,257.9093 L196.8046,260.2293 L197.5406,263.3743 L197.7146,264.1973 L197.1106,264.5763 Z" id="Fill-70" fill="#F3978E"></path>
                <path d="M197.1106,264.5763 C194.8496,266.6263 189.7966,258.8493 191.9796,256.6673 C194.1646,254.4843 195.8296,257.9093 195.8296,257.9093 L196.8046,260.2293 L197.5406,263.3743 L197.7146,264.1973 L197.1106,264.5763 Z" id="Stroke-72" stroke="#FFFFFF"></path>
                <path d="M223.8391,264.34 C225.9181,266.574 231.6111,259.253 229.6201,256.894 C227.6291,254.533 225.6791,257.806 225.6791,257.806 L224.5111,260.035 L223.5131,263.106 L223.2691,263.911 L223.8391,264.34 Z" id="Fill-74" fill="#F3978E"></path>
                <path d="M223.8391,264.34 C225.9181,266.574 231.6111,259.253 229.6201,256.894 C227.6291,254.533 225.6791,257.806 225.6791,257.806 L224.5111,260.035 L223.5131,263.106 L223.2691,263.911 L223.8391,264.34 Z" id="Stroke-76" stroke="#FFFFFF"></path>
                <path d="M226.594,246.2443 C226.197,244.2633 225.443,242.6663 224.597,241.4063 C224.844,241.1813 224.966,241.0483 224.966,241.0483 C221.119,232.2463 208.322,233.7733 208.322,233.7733 C203.447,234.4033 200.04,237.3533 197.751,240.4613 C197.356,240.9723 196.969,241.5363 196.613,242.1603 C194.547,245.5373 193.736,248.6333 193.736,248.6333 C194.07,248.6563 194.386,248.6663 194.713,248.6843 C194.261,253.3763 195.518,255.8493 195.518,255.8493 C195.518,255.8493 197.733,252.9063 199.529,248.8023 C209.993,248.7003 216.764,246.2383 220.662,244.1103 C221.869,250.3263 225.512,255.2543 225.512,255.2543 C225.512,255.2543 227.853,252.5203 226.594,246.2443 Z" id="Stroke-78" stroke="#FFFFFF"></path>
                <polyline id="Stroke-80" stroke="#FFFFFF" points="62.2483 473.6584 68.0163 382.9084 70.1303 382.9084 76.0853 473.6584"></polyline>
                <path d="M92.6301,473.6584 C104.1851,401.3204 91.0731,351.0284 91.0731,351.0284 L70.7341,348.3204 L70.9211,345.9574 L47.1321,349.1254 C47.1321,349.1254 34.1491,401.3204 45.7031,473.6584" id="Stroke-82" stroke="#FFFFFF"></path>
                <path d="M80.4485,262.6486 C82.7085,264.6986 87.7625,256.9216 85.5785,254.7396 C83.3945,252.5556 81.7285,255.9806 81.7285,255.9806 L80.7545,258.3016 L80.0175,261.4456 L79.8435,262.2686 L80.4485,262.6486 Z" id="Fill-84" fill="#F3978E"></path>
                <path d="M80.4485,262.6486 C82.7085,264.6986 87.7625,256.9216 85.5785,254.7396 C83.3945,252.5556 81.7285,255.9806 81.7285,255.9806 L80.7545,258.3016 L80.0175,261.4456 L79.8435,262.2686 L80.4485,262.6486 Z" id="Stroke-86" stroke="#FFFFFF"></path>
                <path d="M53.719,262.4123 C51.641,264.6453 45.948,257.3253 47.939,254.9653 C49.93,252.6053 51.879,255.8773 51.879,255.8773 L53.047,258.1073 L54.046,261.1783 L54.29,261.9833 L53.719,262.4123 Z" id="Fill-88" fill="#F3978E"></path>
                <path d="M53.719,262.4123 C51.641,264.6453 45.948,257.3253 47.939,254.9653 C49.93,252.6053 51.879,255.8773 51.879,255.8773 L53.047,258.1073 L54.046,261.1783 L54.29,261.9833 L53.719,262.4123 Z" id="Stroke-90" stroke="#FFFFFF"></path>
                <path d="M32.1447,393.1789 C34.8647,380.3869 50.2337,311.0459 45.0297,312.2059 C44.5047,312.3229 34.4347,313.2579 32.9377,316.3009 C28.5987,325.1229 25.4867,394.5509 25.4867,394.5509 C25.4867,394.5509 22.3657,409.0349 34.1657,410.6189 C34.9437,410.7239 35.6957,410.2649 35.9517,409.5229 L35.9857,409.4249 C36.2677,408.6069 35.8577,407.7289 35.0667,407.3749 C33.1427,406.5149 30.1587,404.3409 31.6387,399.4049 C31.6387,399.4049 33.3447,399.1969 34.2867,402.3779 C34.5287,403.1969 35.4477,403.6079 36.2097,403.2239 C36.7307,402.9619 37.0237,402.4019 36.9507,401.8249 C36.6877,399.7599 35.7027,395.0149 32.1447,393.1789" id="Fill-92" fill="#FFB1A5"></path>
                <path d="M32.1447,393.1789 C34.8647,380.3869 50.2337,311.0459 45.0297,312.2059 C44.5047,312.3229 34.4347,313.2579 32.9377,316.3009 C28.5987,325.1229 25.4867,394.5509 25.4867,394.5509 C25.4867,394.5509 22.3657,409.0349 34.1657,410.6189 C34.9437,410.7239 35.6957,410.2649 35.9517,409.5229 L35.9857,409.4249 C36.2677,408.6069 35.8577,407.7289 35.0667,407.3749 C33.1427,406.5149 30.1587,404.3409 31.6387,399.4049 C31.6387,399.4049 33.3447,399.1969 34.2867,402.3779 C34.5287,403.1969 35.4477,403.6079 36.2097,403.2239 C36.7307,402.9619 37.0237,402.4019 36.9507,401.8249 C36.6877,399.7599 35.7027,395.0149 32.1447,393.1789 Z" id="Stroke-94" stroke="#FFFFFF" stroke-linecap="round" stroke-linejoin="round"></path>
                <path d="M29.4582,336.675 C29.4582,336.675 40.6172,352.391 40.6762,352.087 C40.7342,351.783 44.5782,330.023 44.5782,330.023 L31.0372,324.157 L29.4582,336.675 Z" id="Fill-96" fill="#F3978E"></path>
                <path d="M60.4641,285.8888 C60.9411,285.8858 32.8851,286.3878 27.7581,321.8138 L43.8811,324.2848 L47.1321,351.0288 L92.1101,351.0288 L101.0411,301.6158 C101.0411,301.6158 94.6931,290.9098 76.1891,285.6648 L60.4641,285.8888 Z" id="Fill-98" fill="#26BDD1"></path>
                <path d="M60.4641,285.8888 C60.9411,285.8858 32.8851,286.3878 27.7581,321.8138 L43.8811,324.2848 L47.1321,351.0288 L92.1101,351.0288 L101.0411,301.6158 C101.0411,301.6158 94.6931,290.9098 76.1891,285.6648 L60.4641,285.8888 Z" id="Stroke-100" stroke="#FFFFFF"></path>
                <path d="M179.0354,359.425 C179.0354,359.425 191.9534,358.242 200.7854,352.417 L200.5524,347.289 L179.0274,350.221 L179.0354,359.425 Z" id="Fill-102" fill="#F3978E"></path>
                <path d="M93.2541,305.759 L64.4641,341.193 L36.7481,308.46 C36.8031,306.831 40.7731,295.725 42.1601,291.483 C42.5051,290.428 41.7781,289.273 40.6341,289.054 C39.8901,288.911 38.7101,289.003 38.1521,290.071 L35.9521,293.832 L32.9311,278.799 C32.7261,277.655 31.5761,276.867 30.4301,277.084 C29.4381,277.272 28.7831,278.155 28.9001,279.151 L30.0401,288.843 C29.8031,288.93 29.5591,289.019 29.3101,289.11 L24.8231,277.374 C24.4361,276.299 23.2261,275.703 22.1581,276.062 C21.2321,276.371 20.7121,277.305 20.9321,278.263 L24.0691,291.045 C23.8741,291.117 23.6811,291.19 23.4861,291.262 L18.5371,281.206 C17.9921,280.087 16.6371,279.568 15.5241,280.052 C14.4801,280.506 14.0171,281.691 14.4641,282.767 L18.7331,293.037 C18.6451,293.071 18.5521,293.106 18.4651,293.138 L13.0711,285.655 C12.5481,284.899 11.5511,284.609 10.7431,284.978 C9.8991,285.363 9.5431,286.337 9.9291,287.206 L14.5871,294.595 C14.5871,294.595 18.5271,308.619 23.2961,312.451 C32.0041,333.276 49.6061,359.19 55.1961,367.2 C55.7241,368.039 56.2971,368.863 56.9181,369.643 C56.9291,369.657 56.9511,369.689 56.9511,369.689 L56.9521,369.685 C59.7051,373.123 63.3701,375.675 67.9511,374.616 C79.4011,371.973 97.2481,347.517 97.2481,347.517 L93.2541,305.759 Z" id="Fill-104" fill="#FFB1A5"></path>
                <path d="M93.2541,305.759 L64.4641,341.193 L36.7481,308.46 C36.8031,306.831 40.7731,295.725 42.1601,291.483 C42.5051,290.428 41.7781,289.273 40.6341,289.054 C39.8901,288.911 38.7101,289.003 38.1521,290.071 L35.9521,293.832 L32.9311,278.799 C32.7261,277.655 31.5761,276.867 30.4301,277.084 C29.4381,277.272 28.7831,278.155 28.9001,279.151 L30.0401,288.843 C29.8031,288.93 29.5591,289.019 29.3101,289.11 L24.8231,277.374 C24.4361,276.299 23.2261,275.703 22.1581,276.062 C21.2321,276.371 20.7121,277.305 20.9321,278.263 L24.0691,291.045 C23.8741,291.117 23.6811,291.19 23.4861,291.262 L18.5371,281.206 C17.9921,280.087 16.6371,279.568 15.5241,280.052 C14.4801,280.506 14.0171,281.691 14.4641,282.767 L18.7331,293.037 C18.6451,293.071 18.5521,293.106 18.4651,293.138 L13.0711,285.655 C12.5481,284.899 11.5511,284.609 10.7431,284.978 C9.8991,285.363 9.5431,286.337 9.9291,287.206 L14.5871,294.595 C14.5871,294.595 18.5271,308.619 23.2961,312.451 C32.0041,333.276 49.6061,359.19 55.1961,367.2 C55.7241,368.039 56.2971,368.863 56.9181,369.643 C56.9291,369.657 56.9511,369.689 56.9511,369.689 L56.9521,369.685 C59.7051,373.123 63.3701,375.675 67.9511,374.616 C79.4011,371.973 97.2481,347.517 97.2481,347.517 L93.2541,305.759 Z" id="Stroke-106" stroke="#FFFFFF" stroke-linecap="round" stroke-linejoin="round"></path>
                <path d="M71.0832,333.0275 C71.0832,333.0275 81.9342,349.3935 91.1892,355.1645 L97.2482,347.5165 L73.8762,329.4375 L71.0832,333.0275 Z" id="Fill-108" fill="#F3978E"></path>
                <path d="M206.7776,348.0256 C199.3426,295.9436 158.3106,285.6256 158.3106,285.6256 C149.2126,281.6196 127.4026,280.0706 118.5556,284.6076 C118.4196,284.6776 118.2906,284.7516 118.1546,284.8226 C114.4536,285.7896 85.5906,294.3196 69.7236,328.9246 C69.7236,328.9246 79.9806,344.3796 96.4236,351.2496 L99.3826,347.6266 L100.7446,407.6796 L179.1636,407.6796 L179.0366,353.8906 C194.2316,353.4596 206.7776,348.0256 206.7776,348.0256" id="Fill-110" fill="#D86964"></path>
                <path d="M206.7776,348.0256 C199.3426,295.9436 158.3106,285.6256 158.3106,285.6256 C149.2126,281.6196 127.4026,280.0706 118.5556,284.6076 C118.4196,284.6776 118.2906,284.7516 118.1546,284.8226 C114.4536,285.7896 85.5906,294.3196 69.7236,328.9246 C69.7236,328.9246 79.9806,344.3796 96.4236,351.2496 L99.3826,347.6266 L100.7446,407.6796 L179.1636,407.6796 L179.0366,353.8906 C194.2316,353.4596 206.7776,348.0256 206.7776,348.0256 Z" id="Stroke-112" stroke="#FFFFFF"></path>
                <path d="M156.5403,337.342 L154.7853,337.342 C149.2463,337.342 144.7563,332.852 144.7563,327.313 L144.7563,315.528 L166.5703,315.528 L166.5703,327.313 C166.5703,332.852 162.0803,337.342 156.5403,337.342 Z" id="Stroke-114" stroke="#FFFFFF"></path>
                <line x1="179.0354" y1="353.3888" x2="180.0534" y2="317.9858" id="Stroke-116" stroke="#FFFFFF"></line>
                <line x1="99.4934" y1="347.4884" x2="97.7994" y2="316.8004" id="Stroke-118" stroke="#FFFFFF"></line>
                <path d="M150.134,281.6291 L150.134,281.6291 L150.134,254.1681 L124.819,254.1681 L124.819,281.6291 L117.282,285.0651 C117.282,285.0651 119.05,296.4461 137.741,296.6981 C156.433,296.9511 158.311,285.6251 158.311,285.6251 L150.134,281.6291 Z" id="Fill-120" fill="#FFB1A5"></path>
                <path d="M150.134,281.6291 L150.134,281.6291 L150.134,254.1681 L124.819,254.1681 L124.819,281.6291 L117.282,285.0651 C117.282,285.0651 119.05,296.4461 137.741,296.6981 C156.433,296.9511 158.311,285.6251 158.311,285.6251 L150.134,281.6291 Z" id="Stroke-122" stroke="#FFFFFF"></path>
                <path d="M155.509,245.0783 C155.509,245.0783 157.215,242.3643 160.736,243.6993 C164.256,245.0343 162.663,253.5833 157.383,254.6733 C157.383,254.6733 155.49,255.0863 154.006,253.7903 C154.006,253.7903 155.305,247.4743 155.509,245.0783" id="Fill-124" fill="#F3978E"></path>
                <path d="M155.509,245.0783 C155.509,245.0783 157.215,242.3643 160.736,243.6993 C164.256,245.0343 162.663,253.5833 157.383,254.6733 C157.383,254.6733 155.49,255.0863 154.006,253.7903 C154.006,253.7903 155.305,247.4743 155.509,245.0783 Z" id="Stroke-126" stroke="#FFFFFF"></path>
                <path d="M119.4748,245.0783 C119.4748,245.0783 117.7678,242.3643 114.2478,243.6993 C110.7278,245.0343 112.3208,253.5833 117.6008,254.6733 C117.6008,254.6733 119.4938,255.0863 120.9778,253.7903 C120.9778,253.7903 119.6788,247.4743 119.4748,245.0783" id="Fill-128" fill="#F3978E"></path>
                <path d="M119.4748,245.0783 C119.4748,245.0783 117.7678,242.3643 114.2478,243.6993 C110.7278,245.0343 112.3208,253.5833 117.6008,254.6733 C117.6008,254.6733 119.4938,255.0863 120.9778,253.7903 C120.9778,253.7903 119.6788,247.4743 119.4748,245.0783 Z" id="Stroke-130" stroke="#FFFFFF"></path>
                <path d="M125.008,262.4884 C125.008,262.4884 127.128,273.2454 136.49,274.4814 C147.265,275.9034 150.134,262.7614 150.134,262.7614 C150.134,262.7614 145.373,268.7274 137.844,268.7364 C129.446,268.7474 125.008,262.4884 125.008,262.4884" id="Fill-132" fill="#F3978E"></path>
                <path d="M146.7287,230.465 C136.5547,232.895 126.1197,224.776 126.1197,224.776 C125.5937,227.95 119.4277,234.742 119.4277,234.742 L119.4747,245.076 C119.9167,249.47 120.8327,254.788 122.7367,258.645 C126.5877,266.444 131.3927,268.929 137.8437,268.736 C144.2937,268.544 149.2137,265.311 152.1887,259.302 C154.1117,255.419 155.0497,249.927 155.4937,245.053 L146.7287,230.465 Z" id="Fill-134" fill="#FFB1A5"></path>
                <path d="M146.7287,230.465 C136.5547,232.895 126.1197,224.776 126.1197,224.776 C125.5937,227.95 119.4277,234.742 119.4277,234.742 L119.4747,245.076 C119.9167,249.47 120.8327,254.788 122.7367,258.645 C126.5877,266.444 131.3927,268.929 137.8437,268.736 C144.2937,268.544 149.2137,265.311 152.1887,259.302 C154.1117,255.419 155.0497,249.927 155.4937,245.053 L146.7287,230.465 Z" id="Stroke-136" stroke="#FFFFFF" stroke-linecap="round" stroke-linejoin="round"></path>
                <path d="M158.5871,224.4328 C157.5541,220.6868 155.1251,215.3988 146.4541,211.4548 C132.1271,204.9398 127.4821,217.1958 127.4821,217.1958 C120.9781,214.4168 117.1721,220.4868 116.1371,223.6468 C115.5111,225.5558 116.0221,227.5888 116.2061,228.9068 L119.4751,245.0788 L119.4281,234.7428 C123.0911,232.3498 125.1071,228.0918 126.1191,224.7758 C126.4751,224.5668 126.8101,224.3888 127.1151,224.2458 C129.5311,226.9958 134.4091,230.4418 143.6421,230.2628 C144.7671,230.2418 145.7821,230.3248 146.7291,230.4648 L155.5091,245.0788 L158.9751,228.8028 C159.0671,227.6388 158.9311,225.6778 158.5871,224.4328 Z" id="Stroke-138" stroke="#FFFFFF" stroke-linecap="round" stroke-linejoin="round"></path>
                <path d="M220.6623,244.1105 C215.1573,248.0515 199.5283,248.8015 199.5283,248.8015 C199.2463,250.1105 196.5763,254.2405 195.7603,255.4825 C196.0813,259.4575 196.6933,262.9205 197.3123,265.6075 C198.1843,269.3965 200.6413,272.0445 204.1103,274.1755 L204.7423,274.5645 C208.4133,276.8195 213.1573,276.8725 216.8853,274.6985 C220.6443,272.5065 223.2763,269.6175 224.0873,265.5505 C224.8083,261.9315 225.2143,258.1275 225.4403,255.1805 C222.5243,252.4765 220.6623,244.1105 220.6623,244.1105" id="Fill-140" fill="#FFB1A5"></path>
                <path d="M220.6623,244.1105 C215.1573,248.0515 199.5283,248.8015 199.5283,248.8015 C199.2463,250.1105 196.5763,254.2405 195.7603,255.4825 C196.0813,259.4575 196.6933,262.9205 197.3123,265.6075 C198.1843,269.3965 200.6413,272.0445 204.1103,274.1755 L204.7423,274.5645 C208.4133,276.8195 213.1573,276.8725 216.8853,274.6985 C220.6443,272.5065 223.2763,269.6175 224.0873,265.5505 C224.8083,261.9315 225.2143,258.1275 225.4403,255.1805 C222.5243,252.4765 220.6623,244.1105 220.6623,244.1105 Z" id="Stroke-142" stroke="#FFFFFF"></path>
                <path d="M48.5998,249.7853 C48.5998,249.7853 49.9908,250.4083 51.8078,247.0153 C51.8078,247.0153 70.7398,247.1673 79.3658,240.6123 L79.6108,238.7383 C79.6108,238.7383 81.0908,240.9243 81.5128,243.3303 C81.5128,243.3303 83.3588,245.8243 84.5238,245.0783" id="Stroke-144" stroke="#FFFFFF" stroke-linecap="round" stroke-linejoin="round"></path>
                <path d="M79.6106,238.7384 L79.3656,240.6124 C72.1696,246.0074 59.6996,246.9914 51.8076,247.0154 C51.8036,247.6564 51.8376,248.0374 51.8376,248.0374 C51.8376,248.0374 51.9986,256.2274 53.4716,263.6234 C54.2816,267.6884 56.9146,270.5794 60.6736,272.7704 C64.4016,274.9434 69.1446,274.8914 72.8166,272.6354 L73.4486,272.2484 C76.9186,270.1164 79.3736,267.4684 80.2466,263.6794 C81.1376,259.8094 82.0306,254.3564 82.0306,248.0374 C82.0306,248.0374 82.3396,243.0744 79.6106,238.7384" id="Fill-146" fill="#FFB1A5"></path>
                <path d="M79.6106,238.7384 L79.3656,240.6124 C72.1696,246.0074 59.6996,246.9914 51.8076,247.0154 C51.8036,247.6564 51.8376,248.0374 51.8376,248.0374 C51.8376,248.0374 51.9986,256.2274 53.4716,263.6234 C54.2816,267.6884 56.9146,270.5794 60.6736,272.7704 C64.4016,274.9434 69.1446,274.8914 72.8166,272.6354 L73.4486,272.2484 C76.9186,270.1164 79.3736,267.4684 80.2466,263.6794 C81.1376,259.8094 82.0306,254.3564 82.0306,248.0374 C82.0306,248.0374 82.3396,243.0744 79.6106,238.7384 Z" id="Stroke-148" stroke="#FFFFFF" stroke-linecap="round" stroke-linejoin="round"></path>
                <path d="M173.8274,31.1486 C173.8274,42.3816 164.7234,51.4686 153.5084,51.4686 C153.0134,51.4686 152.5924,51.1276 152.4824,50.6546 L151.4314,46.0996 C151.3174,45.6046 151.5764,45.0966 152.0454,44.8906 L156.9494,42.7896 C157.3794,42.6056 157.8784,42.7276 158.1764,43.0906 L160.3484,45.7456 C163.7764,44.1376 166.5314,41.3436 168.1074,37.9856 L165.4544,35.8126 C165.0914,35.5196 164.9684,35.0156 165.1514,34.5866 L167.2544,29.6816 C167.4554,29.2176 167.9634,28.9596 168.4584,29.0736 L173.0134,30.1246 C173.4904,30.2336 173.8274,30.6586 173.8274,31.1486 Z" id="Stroke-150" stroke="#FFFFFF" stroke-width="1.647" stroke-linecap="round" stroke-linejoin="round"></path>
            </g>
        </g>
    </g>
</svg>